Coordinates
version=1
nRows=8
nColumns=40
inDegrees=yes

Units are S.I. units (second, meters, Newtons, ...)
Angles are in degrees.

endheader
time	pelvis_tilt	pelvis_list	pelvis_rotation	pelvis_tx	pelvis_ty	pelvis_tz	hip_flexion_r	hip_adduction_r	hip_rotation_r	knee_angle_r	knee_angle_r_beta	ankle_angle_r	subtalar_angle_r	mtp_angle_r	hip_flexion_l	hip_adduction_l	hip_rotation_l	knee_angle_l	knee_angle_l_beta	ankle_angle_l	subtalar_angle_l	mtp_angle_l	lumbar_extension	lumbar_bending	lumbar_rotation	arm_flex_r	arm_add_r	arm_rot_r	elbow_flex_r	pro_sup_r	wrist_flex_r	wrist_dev_r	arm_flex_l	arm_add_l	arm_rot_l	elbow_flex_l	pro_sup_l	wrist_flex_l	wrist_dev_l
      7.65000000	     -5.42909256	     -3.91602567	      0.00242274	      0.94906672	      0.91875622	      0.36958711	      9.36199209	     -8.59685646	     -7.66039381	     38.81567676	     38.81567676	      6.25291926	     -7.51876973	    -21.69667543	     21.13366307	     -1.91111312	     -3.73054733	     30.28397723	     30.28397723	     17.59507066	    -17.45458989	      8.97695695	     -9.80952611	      7.38014079	      3.42187594	     29.82713773	    -13.46390628	    -16.69144147	     38.35878909	     45.80516854	      0.00000000	      0.00000000	      1.36032143	    -13.63976044	     13.89992123	     32.00066086	     45.43154047	      0.00000000	      0.00000000
      7.67314286	     -5.26801228	     -3.88918924	     -0.61496413	      0.94812616	      0.91700635	      0.36698261	     11.62290011	     -9.04685519	     -6.51930443	     43.13624828	     43.13624828	      4.74997000	     -9.20394106	    -21.80632373	     21.11486732	     -1.83372563	     -4.09288411	     31.20857203	     31.20857203	     18.16703934	    -17.88832968	      8.78853078	    -10.19115788	      7.64950049	      2.96766972	     26.47639539	    -12.88442692	    -16.63857422	     36.55074427	     45.85252166	      0.00000000	      0.00000000	      3.63464462	    -14.28476288	     13.57580040	     33.02575370	     45.51096314	      0.00000000	      0.00000000
      7.69628571	     -5.22908001	     -4.04596137	     -1.28546107	      0.94710356	      0.91523036	      0.36475683	     13.98308923	     -8.96338842	     -5.03099218	     47.24572487	     47.24572487	      2.98787325	    -11.66839677	    -21.17475607	     21.20840327	     -1.99471302	     -4.44696310	     32.13260908	     32.13260908	     18.91210941	    -18.14043474	      8.90929006	    -10.39887058	      8.09642445	      3.17328947	     22.76600565	    -12.76531970	    -16.65198524	     33.96216399	     45.93643201	      0.00000000	      0.00000000	      6.28099229	    -14.83611800	     13.18826877	     34.43789209	     45.60683551	      0.00000000	      0.00000000
      7.71942857	     -5.03493736	     -4.19682685	     -1.94486753	      0.94607231	      0.91396832	      0.36274945	     16.07698338	     -8.80474136	     -3.76240853	     51.10496905	     51.10496905	      1.91696345	    -13.15882529	    -18.22944948	     21.12662175	     -2.13928279	     -4.75440246	     33.10001616	     33.10001616	     20.26444745	    -18.20621703	     10.71319602	    -10.82401743	      8.50581446	      3.17604985	     19.92797453	    -12.46851361	    -17.11663281	     29.48066314	     46.15868615	      0.00000000	      0.00000000	      9.06038469	    -15.57396635	     13.11148815	     35.66979673	     45.69147315	      0.00000000	      0.00000000
      7.74257143	     -4.97966088	     -4.27677532	     -2.63000206	      0.94497271	      0.91286490	      0.36116349	     18.14671848	     -8.66106459	     -2.71642654	     54.38699669	     54.38699669	      0.50332072	    -14.66766896	    -16.71964593	     20.98272493	     -2.26687464	     -5.22858071	     33.62524176	     33.62524176	     20.78750994	    -18.36741728	     10.68361644	    -11.11094360	      8.79273036	      3.15184709	     16.34841111	    -12.16919023	    -17.20655480	     27.32029870	     46.23463697	      0.00000000	      0.00000000	     11.76371178	    -16.34798219	     12.62366061	     37.05757560	     45.79726550	      0.00000000	      0.00000000
      7.76571429	     -4.86063163	     -4.41756581	     -3.30990016	      0.94383463	      0.91247461	      0.36011738	     20.11081363	     -8.33382218	     -1.82815839	     57.47850095	     57.47850095	      1.42295554	    -14.36588302	     -9.32769559	     20.67563204	     -2.47784939	     -5.67857986	     33.99804170	     33.99804170	     21.51483973	    -18.37890460	     11.40175241	    -11.47955402	      9.07967420	      3.15844774	     13.30451777	    -11.82981649	    -17.79277274	     24.29998424	     46.44007525	      0.00000000	      0.00000000	     14.59668282	    -17.10767187	     12.09613415	     38.30050014	     45.93582872	      0.00000000	      0.00000000
      7.78885714	     -4.68726617	     -4.64215879	     -3.87501148	      0.94282830	      0.91289593	      0.35945424	     21.44944931	     -8.11368166	     -1.62580788	     59.17544774	     59.17544774	      0.54936049	    -14.85044041	     -8.99741424	     20.02865849	     -2.73524945	     -6.00439428	     33.81942208	     33.81942208	     21.77648103	    -18.44717364	     11.40823662	    -11.88378588	      9.48134725	      2.03763776	     10.55256031	    -11.13783223	    -17.81787175	     23.15377843	     46.46711510	      0.00000000	      0.00000000	     16.75235665	    -18.57770312	     11.61240938	     38.97603994	     46.01882962	      0.00000000	      0.00000000
      7.81200000	     -4.91824628	     -4.62584163	     -4.76764775	      0.94134257	      0.91337098	      0.35982643	     23.28716980	     -7.55292257	     -0.64223937	     60.31861256	     60.31861256	      0.26040480	    -16.12871266	     -6.85345639	     19.76945841	     -2.94527866	     -6.84328285	     33.52992036	     33.52992036	     21.88051289	    -18.40994836	     11.42644271	    -11.85326701	      9.36322930	      3.02776876	      6.92553089	    -11.14721244	    -17.75932847	     21.27538475	     46.52751068	      0.00000000	      0.00000000	     19.86462582	    -18.77753095	     10.80404549	     41.19480892	     46.16394278	      0.00000000	      0.00000000
